<?xml version="1.0" encoding="UTF-8" standalone="no"?>
<!-- Created with Inkscape (http://www.inkscape.org/) -->

<svg
   width="52.916668mm"
   height="14.552083mm"
   viewBox="0 0 52.916668 14.552083"
   version="1.1"
   id="svg5"
   inkscape:version="1.1.1 (3bf5ae0d25, 2021-09-20)"
   sodipodi:docname="metaRestaurante.svg"
   xmlns:inkscape="http://www.inkscape.org/namespaces/inkscape"
   xmlns:sodipodi="http://sodipodi.sourceforge.net/DTD/sodipodi-0.dtd"
   xmlns="http://www.w3.org/2000/svg"
   xmlns:svg="http://www.w3.org/2000/svg">
  <sodipodi:namedview
     id="namedview7"
     pagecolor="#ffffff"
     bordercolor="#999999"
     borderopacity="1"
     inkscape:pageshadow="0"
     inkscape:pageopacity="0"
     inkscape:pagecheckerboard="0"
     inkscape:document-units="mm"
     showgrid="false"
     inkscape:zoom="3.0574074"
     inkscape:cx="107.1169"
     inkscape:cy="71.792853"
     inkscape:window-width="1920"
     inkscape:window-height="1017"
     inkscape:window-x="-8"
     inkscape:window-y="-8"
     inkscape:window-maximized="1"
     inkscape:current-layer="layer1" />
  <defs
     id="defs2">
    <linearGradient
       id="linearGradient978"
       inkscape:swatch="solid">
      <stop
         style="stop-color:#000000;stop-opacity:1;"
         offset="0"
         id="stop976" />
    </linearGradient>
    <linearGradient
       id="linearGradient972"
       inkscape:swatch="solid">
      <stop
         style="stop-color:#ff0000;stop-opacity:1;"
         offset="0"
         id="stop970" />
    </linearGradient>
    <rect
       x="141.29617"
       y="272.12598"
       width="293.05875"
       height="58.873409"
       id="rect32128" />
    <rect
       x="117.74682"
       y="650.22412"
       width="94.197456"
       height="28.782557"
       id="rect23448" />
    <rect
       x="125.59661"
       y="648.91583"
       width="336.2326"
       height="52.331921"
       id="rect10550" />
  </defs>
  <g
     inkscape:label="Capa 1"
     inkscape:groupmode="layer"
     id="layer1"
     transform="translate(-65.001154,-68.238112)">
    <g
       aria-label="metaRestaurante"
       transform="matrix(0.44258578,0,0,1.4710209,12.762139,-0.730041)"
       id="text32838"
       style="font-weight:bold;font-size:13.6886px;line-height:23.4176px;font-family:'Cooper Black';-inkscape-font-specification:'Cooper Black,  Bold';display:inline;opacity:0.95;fill:#ffffff;stroke:#ff0000;stroke-width:0.32791;stroke-opacity:1"
       inkscape:label="text32838">
      <path
         d="m 121.39453,49.511317 q 0.38098,0 0.38098,0.541395 0,0.0067 0,0.113626 -0.007,0.106943 -0.007,0.173781 0,0.36093 0.21388,0.36093 0.11363,0 0.35425,-0.287407 0.36093,-0.414401 0.90901,-0.655021 0.54808,-0.247304 1.12289,-0.247304 1.11621,0 1.55066,0.815435 0.1671,0.300774 0.27404,0.300774 0.0735,0 0.34756,-0.267355 0.86891,-0.848854 1.97175,-0.848854 0.86222,0 1.4103,0.474556 0.57481,0.494608 0.57481,1.483823 0,0.213885 -0.0134,0.72186 -0.0134,0.173781 -0.0134,1.04937 0,0.561447 -0.007,0.788699 -0.007,0.140361 -0.007,0.200516 0,0.427769 0.26736,0.748596 0.16041,0.193832 0.19383,0.260671 0.0401,0.06016 0.0401,0.167097 0,0.855538 -2.01185,0.855538 -0.88896,0 -1.43703,-0.213885 -0.5414,-0.213884 -0.5414,-0.561446 0,-0.133678 0.0334,-0.200517 0.0401,-0.07352 0.26067,-0.374297 0.2072,-0.27404 0.2072,-1.824701 0,-0.902325 -0.12699,-1.256571 -0.14705,-0.421085 -0.58818,-0.421085 -0.22057,0 -0.39435,0.140362 -0.1671,0.133678 -0.22057,0.340878 -0.0602,0.24062 -0.0668,1.283306 0.02,1.122893 0.0668,1.363513 0.0535,0.24062 0.34088,0.668389 0.0668,0.100258 0.0668,0.253987 0,0.795383 -2.07869,0.795383 -1.24989,0 -1.68434,-0.187149 -0.34756,-0.147045 -0.34756,-0.521343 0,-0.167097 0.0401,-0.233936 0.0468,-0.06684 0.30077,-0.307459 0.14705,-0.140361 0.18715,-0.260671 0.0468,-0.126994 0.0668,-0.454505 0.0468,-0.735227 0.0468,-1.483822 0,-1.310042 -0.66839,-1.310042 -0.50129,0 -0.59487,0.561446 -0.0802,0.528027 -0.0802,1.510559 0,0.735227 0.0267,0.962479 0.0334,0.227252 0.1671,0.474556 0.16041,0.287407 0.16041,0.467872 0,0.434453 -0.60823,0.60155 -0.6617,0.180465 -1.45709,0.180465 -1.02932,0 -1.51056,-0.160413 -0.48124,-0.167097 -0.48124,-0.521343 0,-0.133678 0.0602,-0.227253 0.0668,-0.09357 0.29409,-0.294091 0.30078,-0.274039 0.34756,-0.755279 0.0735,-0.828802 0.0735,-1.717759 0,-0.634969 -0.0668,-0.882273 -0.0602,-0.253987 -0.26736,-0.407717 -0.20052,-0.153729 -0.26067,-0.233936 -0.0535,-0.08021 -0.0535,-0.220568 0,-0.44782 0.70181,-0.708492 1.69102,-0.608234 2.53319,-0.614918 z"
         id="path50299"
         style="fill:#ffffff;stroke:#ff0000;stroke-width:0.32791;stroke-opacity:1" />
      <path
         d="m 137.52943,53.1273 h -3.14142 q -0.20721,0 -0.20721,0.180465 0,0.434453 0.46788,0.822118 0.47455,0.380982 1.01595,0.380982 0.32082,0 0.70849,-0.12031 0.39435,-0.126994 0.64834,-0.307459 0.22725,-0.160413 0.36093,-0.160413 0.17378,0 0.34087,0.213884 0.1671,0.213884 0.1671,0.441136 0,0.48124 -0.60155,0.929061 -1.06274,0.795382 -2.45298,0.795382 -1.40362,0 -2.35273,-0.815434 -0.46119,-0.401033 -0.76197,-0.969164 -0.39434,-0.755279 -0.39434,-1.590765 0,-1.122892 0.68175,-2.018533 0.58818,-0.775331 1.49719,-1.156313 0.68176,-0.287407 1.47714,-0.287407 1.26994,0 2.1589,0.72186 0.44782,0.36093 0.72186,0.855537 0.31414,0.561447 0.31414,1.096158 0,0.434452 -0.18047,0.715176 -0.18046,0.274039 -0.46787,0.274039 z m -2.96764,-1.249887 h 0.67507 q 0.42777,0 0.42777,-0.394349 0,-0.36093 -0.2072,-0.588182 -0.2072,-0.227252 -0.5414,-0.227252 -0.3743,0 -0.58818,0.294091 -0.20052,0.274039 -0.20052,0.554762 0,0.200517 0.0936,0.280724 0.10026,0.08021 0.34088,0.08021 z"
         id="path50301"
         style="fill:#ffffff;stroke:#ff0000;stroke-width:0.32791;stroke-opacity:1" />
      <path
         d="m 142.49556,51.215709 v 2.259153 q 0,0.401033 0.19383,0.655021 0.20052,0.253988 0.50798,0.253988 0.26067,0 0.68844,-0.24062 0.10026,-0.06016 0.20051,-0.06016 0.16042,0 0.2941,0.193833 0.13367,0.193832 0.13367,0.421084 0,0.414401 -0.4545,0.795383 -0.94911,0.80875 -2.29926,0.80875 -1.06942,0 -1.71776,-0.60155 -0.64833,-0.608233 -0.64833,-1.597449 v -3.087955 q 0,-0.153729 -0.0401,-0.187149 -0.0334,-0.0401 -0.18715,-0.0401 h -0.68844 q -0.19383,0 -0.2473,-0.06016 -0.0535,-0.06684 -0.0535,-0.300775 v -0.294091 q 0.007,-0.200517 0.15373,-0.294091 l 3.06122,-1.924959 q 0.11362,-0.06016 0.28072,-0.06016 h 0.5414 q 0.16709,0 0.22056,0.08021 0.0602,0.07352 0.0602,0.300775 v 0.902325 q 0,0.200516 0.0601,0.260671 0.0668,0.06016 0.27404,0.06016 h 1.23652 q 0.24731,0 0.32083,0.09357 0.0735,0.08689 0.0735,0.380981 v 0.39435 q 0,0.320826 -0.0936,0.44782 -0.0936,0.12031 -0.34088,0.12031 h -1.20978 q -0.18715,0 -0.25399,0.06684 -0.0668,0.06684 -0.0668,0.253988 z"
         id="path50303"
         style="fill:#ffffff;stroke:#ff0000;stroke-width:0.32791;stroke-opacity:1" />
      <path
         d="m 148.75168,49.457846 c 0.77533,0 1.43257,0.196061 1.97174,0.588182 0.28518,0.209429 0.48347,0.450049 0.59487,0.72186 0.11585,0.267355 0.17378,0.637197 0.17378,1.109525 l -0.0134,0.995899 c 0,0.690669 0.049,1.138489 0.14705,1.343462 0.049,0.09803 0.0713,0.217806 0.11589,0.244542 0.0445,0.02673 0.0749,0.146011 0.0892,0.205797 l 0.23415,0.980652 c 0.16143,0.207193 0.30131,0.607738 0.88075,0.609162 1.34305,0.0033 5.8922,0.1072 11.22438,0.117802 8.86078,0.01762 19.88389,-0.05874 21.95008,-0.05091 28.94131,0.109711 55.62514,0.269636 50.67847,0.330765 -7.19871,0.08896 -79.5618,0.262283 -83.98146,-0.08637 -1.08937,-0.08594 -1.98695,-0.176334 -2.52824,-0.26606 -0.46787,0 -0.83771,-0.160413 -1.10952,-0.48124 -0.0936,-0.115854 -0.18047,-0.173781 -0.26068,-0.173781 -0.0891,0 -0.20719,0.0557 -0.35424,0.167097 -0.44559,0.325283 -0.95134,0.487924 -1.51724,0.487924 -0.58373,0 -1.05606,-0.124766 -1.41699,-0.374297 -0.23616,-0.164869 -0.42331,-0.378754 -0.56144,-0.641654 -0.13813,-0.267355 -0.2072,-0.54585 -0.2072,-0.835485 0,-0.463417 0.18715,-0.873362 0.56144,-1.229836 0.58373,-0.561446 1.45709,-0.844397 2.62009,-0.848853 0.25844,0 0.42108,-0.02451 0.48792,-0.07352 0.0668,-0.05347 0.10026,-0.173783 0.10026,-0.36093 0,-0.472328 -0.049,-0.813206 -0.14705,-1.022634 -0.098,-0.213885 -0.25844,-0.320827 -0.48124,-0.320827 -0.13367,0 -0.25398,0.0401 -0.36093,0.12031 -0.10249,0.08021 -0.23171,0.227252 -0.38766,0.441137 -0.39658,0.565902 -0.81098,0.848853 -1.24321,0.848853 -0.21834,0 -0.39658,-0.06461 -0.53471,-0.193833 -0.13813,-0.129221 -0.2072,-0.298546 -0.2072,-0.507975 0,-0.213885 0.0847,-0.427769 0.25399,-0.641653 0.17378,-0.213885 0.40772,-0.401034 0.70181,-0.561447 0.80652,-0.427769 1.64869,-0.641653 2.52651,-0.641653 z m -0.44782,3.869971 c -0.19606,0 -0.36761,0.08021 -0.51466,0.24062 -0.14259,0.160413 -0.21389,0.352017 -0.21389,0.574814 0,0.213884 0.0512,0.387665 0.15373,0.521343 0.10249,0.129222 0.23839,0.193833 0.40772,0.193833 0.35647,0 0.53471,-0.300775 0.53471,-0.902325 0,-0.245076 -0.0267,-0.409945 -0.0802,-0.494608 -0.049,-0.08466 -0.1448,-0.129221 -0.2874,-0.133677 z"
         id="path50305"
         style="fill:#ffffff;stroke:#ff0000;stroke-width:0.32791;stroke-opacity:1"
         sodipodi:nodetypes="scccccsscsssssccscsccscccscsccsssccssscscsscss" />
      <path
         d="m 157.0798,52.28513 c -0.16933,0 -0.2785,0.05124 -0.32751,0.15373 -0.0445,0.102486 -0.0668,0.340878 -0.0668,0.715176 0,0.565902 0.0357,1.007038 0.10694,1.323409 0.0223,0.08912 0.0557,0.158186 0.10026,0.207201 0.0445,0.04901 0.1292,0.109168 0.25399,0.180465 0.26735,0.147045 0.40103,0.340878 0.40103,0.581498 0,0.294091 -0.18715,0.503519 -0.56145,0.628285 -0.36984,0.12031 -0.99812,0.180465 -1.88485,0.180465 -1.64869,0 -2.47304,-0.311915 -2.47304,-0.935744 0,-0.106942 0.0245,-0.191605 0.0735,-0.253988 0.049,-0.06684 0.1604,-0.158185 0.3342,-0.274039 0.19606,-0.129222 0.32751,-0.280723 0.39435,-0.454504 0.0713,-0.178237 0.12031,-0.483468 0.14704,-0.915693 0.0223,-0.316371 0.0334,-1.450403 0.0334,-3.402098 0,-0.619373 -0.0312,-1.040458 -0.0936,-1.263255 -0.0624,-0.222796 -0.19608,-0.385437 -0.40104,-0.487923 -0.19606,-0.09358 -0.32751,-0.178237 -0.39435,-0.253988 -0.0668,-0.08021 -0.10025,-0.182693 -0.10025,-0.307459 0,-0.164869 -32.46128,-0.145126 -32.33652,-0.265436 0.12923,-0.124765 32.83113,-0.378445 33.05838,-0.436372 0.1916,-0.04901 0.4545,-0.07352 0.78869,-0.07352 0.14705,0 1.04268,-0.05904 1.63087,-0.01449 0.11139,0.0089 -0.24062,0 0,0 0.40103,0 0,0 0,0 0.42331,-0.03119 2.32376,-0.0323 2.49309,-0.0323 0.95357,0 1.74227,0.22948 2.3661,0.68844 0.56145,0.414401 0.84217,0.989216 0.84217,1.724443 0,0.409945 -0.098,0.784243 -0.29409,1.122893 -0.19606,0.334195 -0.46564,0.585954 -0.80875,0.755279 -0.14259,0.07129 -0.21389,0.155957 -0.21389,0.253988 0,0.129222 0.10917,0.233936 0.32751,0.314143 0.46787,0.169325 0.81098,0.42554 1.02932,0.768646 0.21834,0.343107 0.3743,0.868906 0.46787,1.577398 0.0401,0.294091 0.0981,0.485695 0.17378,0.574814 0.0757,0.08466 0.25176,0.167097 0.52803,0.247304 0.0847,0.02673 0.15596,0.08466 0.21389,0.173781 0.0579,0.08466 0.0869,0.180465 0.0869,0.287407 0,0.138133 -0.0535,0.278495 -0.16042,0.421085 -0.10694,0.138133 -0.24507,0.247303 -0.4144,0.32751 -0.37429,0.173781 -0.88672,0.260672 -1.53729,0.260672 -0.86891,0 -1.49051,-0.22948 -1.86481,-0.688441 -0.16932,-0.204972 -0.31414,-0.463415 -0.43445,-0.77533 -0.11585,-0.311915 -0.25399,-0.797611 -0.4144,-1.457088 -0.10249,-0.423313 -0.23394,-0.721859 -0.39435,-0.89564 -0.15596,-0.173781 -0.38098,-0.267356 -0.67507,-0.280724 z m -0.38767,-3.408782 -0.0735,1.557346 v 0.06015 c 0,0.160413 0.0223,0.267355 0.0668,0.320826 0.049,0.05347 0.1448,0.08021 0.28741,0.08021 0.39212,0 0.6773,-0.100258 0.85553,-0.300775 0.17824,-0.204973 0.26736,-0.530255 0.26736,-0.975847 0,-0.859993 -0.30523,-1.28999 -0.91569,-1.28999 -0.17378,0 -0.29632,0.0401 -0.36762,0.120309 -0.0713,0.08021 -0.1114,0.222796 -0.12031,0.427769 z"
         id="path50307"
         style="fill:#ffffff;stroke:#ff0000;stroke-width:0.32791;stroke-opacity:1"
         sodipodi:nodetypes="scscscscssccccssccsccscscscsccscsccccsccsccccssccscscssssc" />
      <path
         d="m 169.29794,53.1273 h -3.14142 q -0.2072,0 -0.2072,0.180465 0,0.434453 0.46787,0.822118 0.47456,0.380982 1.01595,0.380982 0.32083,0 0.70849,-0.12031 0.39435,-0.126994 0.64834,-0.307459 0.22725,-0.160413 0.36093,-0.160413 0.17378,0 0.34088,0.213884 0.16709,0.213884 0.16709,0.441136 0,0.48124 -0.60155,0.929061 -1.06273,0.795382 -2.45298,0.795382 -1.40362,0 -2.35273,-0.815434 -0.46119,-0.401033 -0.76196,-0.969164 -0.39435,-0.755279 -0.39435,-1.590765 0,-1.122892 0.68175,-2.018533 0.58819,-0.775331 1.49719,-1.156313 0.68176,-0.287407 1.47714,-0.287407 1.26994,0 2.1589,0.72186 0.44782,0.36093 0.72186,0.855537 0.31414,0.561447 0.31414,1.096158 0,0.434452 -0.18046,0.715176 -0.18047,0.274039 -0.46788,0.274039 z m -2.96764,-1.249887 h 0.67507 q 0.42777,0 0.42777,-0.394349 0,-0.36093 -0.2072,-0.588182 -0.2072,-0.227252 -0.54139,-0.227252 -0.3743,0 -0.58819,0.294091 -0.20051,0.274039 -0.20051,0.554762 0,0.200517 0.0936,0.280724 0.10026,0.08021 0.34088,0.08021 z"
         id="path50309"
         style="fill:#ffffff;stroke:#ff0000;stroke-width:0.32791;stroke-opacity:1" />
      <path
         d="m 173.05429,49.46453 q 0.33419,0 1.08947,0.147046 0.15373,0.02674 0.25399,0.02674 0.11363,0 0.44114,-0.12031 0.15373,-0.06015 0.26067,-0.06015 0.30746,0 0.6216,0.39435 0.25399,0.314142 0.4144,0.68844 0.16041,0.374298 0.16041,0.648337 0,0.267355 -0.18714,0.44782 -0.18715,0.173781 -0.46788,0.173781 -0.23393,0 -0.42108,-0.113626 -0.18047,-0.113626 -0.58818,-0.501291 -0.42777,-0.414401 -0.7085,-0.414401 -0.18714,0 -0.32751,0.140362 -0.13367,0.133677 -0.13367,0.320826 0,0.32751 0.62828,0.614918 1.12958,0.507975 1.73113,1.109525 0.50797,0.507975 0.50797,1.243203 0,0.92906 -0.81543,1.550661 -0.70181,0.541395 -1.71776,0.541395 -0.26067,0 -0.94911,-0.08689 -0.64834,-0.07352 -0.72854,-0.07352 -0.0869,0 -0.20052,0.02005 -0.19383,0.02673 -0.28072,0.02673 -0.31415,0 -0.49461,-0.160413 -0.27404,-0.247304 -0.50798,-0.775331 -0.23393,-0.534711 -0.23393,-0.915692 0,-0.614918 0.48124,-0.614918 0.18715,0 0.34087,0.126994 0.16042,0.12031 0.66171,0.655021 0.27404,0.294091 0.4545,0.407717 0.18047,0.106942 0.38767,0.106942 0.22057,0 0.35424,-0.113626 0.13368,-0.12031 0.13368,-0.314143 0,-0.300775 -0.51466,-0.548078 -1.0761,-0.528028 -1.55734,-1.089474 -0.47456,-0.561446 -0.47456,-1.296674 0,-0.795382 0.48793,-1.370197 0.69512,-0.822118 1.89822,-0.822118 z"
         id="path50311"
         style="fill:#ffffff;stroke:#ff0000;stroke-width:0.32791;stroke-opacity:1" />
      <path
         d="m 180.91454,51.215709 v 2.259153 q 0,0.401033 0.19383,0.655021 0.20052,0.253988 0.50798,0.253988 0.26067,0 0.68844,-0.24062 0.10026,-0.06016 0.20051,-0.06016 0.16042,0 0.2941,0.193833 0.13367,0.193832 0.13367,0.421084 0,0.414401 -0.4545,0.795383 -0.94911,0.80875 -2.29926,0.80875 -1.06942,0 -1.71776,-0.60155 -0.64833,-0.608233 -0.64833,-1.597449 v -3.087955 q 0,-0.153729 -0.0401,-0.187149 -0.0334,-0.0401 -0.18715,-0.0401 h -0.68844 q -0.19383,0 -0.2473,-0.06016 -0.0535,-0.06684 -0.0535,-0.300775 v -0.294091 q 0.007,-0.200517 0.15373,-0.294091 l 3.06122,-1.924959 q 0.11362,-0.06016 0.28072,-0.06016 h 0.5414 q 0.16709,0 0.22056,0.08021 0.0602,0.07352 0.0602,0.300775 v 0.902325 q 0,0.200516 0.0602,0.260671 0.0668,0.06016 0.27404,0.06016 h 1.23652 q 0.24731,0 0.32083,0.09357 0.0735,0.08689 0.0735,0.380981 v 0.39435 q 0,0.320826 -0.0936,0.44782 -0.0936,0.12031 -0.34088,0.12031 h -1.20978 q -0.18715,0 -0.25399,0.06684 -0.0668,0.06684 -0.0668,0.253988 z"
         id="path50313"
         style="fill:#ffffff;stroke:#ff0000;stroke-width:0.32791;stroke-opacity:1" />
      <path
         d="m 187.17065,49.457846 q 1.163,0 1.97175,0.588182 0.42777,0.314143 0.59487,0.72186 0.17378,0.401033 0.17378,1.109525 l -0.0134,0.995899 q 0,1.036003 0.14704,1.343462 0.0735,0.147045 0.14037,0.187148 0.0668,0.0401 0.28072,0.07352 0.21388,0.03342 0.21388,0.280723 0,0.320827 -0.26067,0.668389 -0.25399,0.347562 -0.6617,0.581498 -0.50129,0.294091 -1.04937,0.294091 -0.70181,0 -1.10953,-0.48124 -0.14036,-0.173781 -0.26067,-0.173781 -0.13368,0 -0.35425,0.167097 -0.66838,0.487924 -1.51724,0.487924 -0.87559,0 -1.41698,-0.374297 -0.35425,-0.247304 -0.56145,-0.641654 -0.2072,-0.401033 -0.2072,-0.835485 0,-0.695125 0.56145,-1.229836 0.87559,-0.842169 2.62008,-0.848853 0.38767,0 0.48792,-0.07352 0.10026,-0.08021 0.10026,-0.36093 0,-0.708492 -0.14704,-1.022634 -0.14705,-0.320827 -0.48124,-0.320827 -0.20052,0 -0.36093,0.12031 -0.15373,0.12031 -0.38767,0.441137 -0.59486,0.848853 -1.2432,0.848853 -0.32751,0 -0.53471,-0.193833 -0.2072,-0.193832 -0.2072,-0.507975 0,-0.320827 0.25399,-0.641653 0.26067,-0.320827 0.7018,-0.561447 1.20979,-0.641653 2.52651,-0.641653 z m -0.44782,3.869971 q -0.29409,0 -0.51466,0.24062 -0.21388,0.240619 -0.21388,0.574814 0,0.320826 0.15373,0.521343 0.15373,0.193833 0.40772,0.193833 0.53471,0 0.53471,-0.902325 0,-0.367614 -0.0802,-0.494608 -0.0735,-0.126993 -0.28741,-0.133677 z"
         id="path50315"
         style="fill:#ffffff;stroke:#ff0000;stroke-width:0.32791;stroke-opacity:1" />
      <path
         d="m 194.77692,49.845512 v 3.622666 q 0,1.162997 0.76865,1.162997 0.19383,0 0.38098,-0.106943 0.18715,-0.113626 0.26067,-0.274039 0.14704,-0.320827 0.14704,-1.430352 0,-1.096157 -0.0735,-1.49719 -0.0267,-0.167097 -0.0936,-0.24062 -0.0668,-0.08021 -0.25399,-0.180465 -0.38098,-0.200517 -0.38098,-0.507976 0,-0.4144 0.65502,-0.574814 1.2432,-0.307459 2.45298,-0.307459 0.67508,0 0.67508,0.715176 0,0.07352 -0.007,0.300775 -0.0134,0.320827 -0.02,0.782015 v 2.947594 q 0,0.227252 0.38767,0.414401 0.32751,0.160413 0.32751,0.467872 0,0.60155 -1.42367,0.92906 -0.83549,0.193833 -1.6175,0.193833 -0.32083,0 -0.44114,-0.07352 -0.11362,-0.07352 -0.13368,-0.287407 -0.0334,-0.414401 -0.25398,-0.414401 -0.0802,0 -0.14705,0.0401 -0.0668,0.03342 -0.40772,0.267356 -0.67507,0.461188 -1.4504,0.461188 -1.2833,0 -1.81133,-0.741911 -0.44782,-0.621602 -0.44782,-2.092057 0,-0.548079 0.007,-0.935744 0,-0.227252 0,-0.307459 0,-0.574814 -0.10694,-0.84217 -0.10026,-0.274039 -0.3743,-0.427768 -0.26067,-0.133678 -0.33419,-0.213885 -0.0668,-0.08021 -0.0668,-0.220568 0,-0.507975 0.76865,-0.675072 1.31004,-0.287408 2.62008,-0.287408 0.39435,0 0.39435,0.334195 z"
         id="path50317"
         style="fill:#ffffff;stroke:#ff0000;stroke-width:0.32791;stroke-opacity:1" />
      <path
         d="m 203.51276,49.504634 q 0.35425,0 0.42777,0.100258 0.0802,0.100258 0.14036,0.641653 0.0334,0.294091 0.2072,0.294091 0.13368,0 0.25399,-0.193833 0.53471,-0.835486 1.39693,-0.835486 0.60823,0 0.9959,0.39435 0.18715,0.193832 0.30746,0.501291 0.12031,0.300775 0.12031,0.581498 0,0.314143 -0.14705,0.648337 -0.14704,0.327511 -0.38098,0.541395 -0.42777,0.407717 -1.04937,0.407717 -0.34088,0 -0.57481,-0.12031 -0.22725,-0.12031 -0.60155,-0.487923 -0.14036,-0.140362 -0.26067,-0.140362 -0.18715,0 -0.24731,0.213884 -0.0535,0.207201 -0.0535,0.882273 0,1.009267 0.0735,1.376881 0.0468,0.200517 0.127,0.280723 0.0869,0.07352 0.36093,0.15373 0.60155,0.180465 0.60155,0.628285 0,0.274039 -0.19384,0.48124 -0.19383,0.200516 -0.51465,0.267355 -0.64166,0.133678 -1.88486,0.133678 -1.18305,0 -1.79797,-0.207201 -0.54807,-0.187148 -0.54807,-0.648337 0,-0.347562 0.40103,-0.621601 0.19383,-0.126994 0.26735,-0.227252 0.0735,-0.106942 0.10026,-0.287407 0.10694,-0.608234 0.10694,-2.25247 0,-0.300775 -0.0668,-0.427769 -0.0668,-0.133677 -0.26736,-0.213884 -0.47456,-0.187149 -0.47456,-0.541395 0,-0.320826 0.32751,-0.548079 0.32752,-0.233936 1.09616,-0.461188 1.02932,-0.307459 1.75118,-0.314142 z"
         id="path50319"
         style="fill:#ffffff;stroke:#ff0000;stroke-width:0.32791;stroke-opacity:1" />
      <path
         d="m 211.39306,49.457846 q 1.16299,0 1.97174,0.588182 0.42777,0.314143 0.59487,0.72186 0.17378,0.401033 0.17378,1.109525 l -0.0134,0.995899 q 0,1.036003 0.14705,1.343462 0.0735,0.147045 0.14036,0.187148 0.0668,0.0401 0.28072,0.07352 0.21389,0.03342 0.21389,0.280723 0,0.320827 -0.26067,0.668389 -0.25399,0.347562 -0.66171,0.581498 -0.50129,0.294091 -1.04937,0.294091 -0.70181,0 -1.10952,-0.48124 -0.14037,-0.173781 -0.26068,-0.173781 -0.13367,0 -0.35424,0.167097 -0.66839,0.487924 -1.51724,0.487924 -0.87559,0 -1.41699,-0.374297 -0.35424,-0.247304 -0.56144,-0.641654 -0.2072,-0.401033 -0.2072,-0.835485 0,-0.695125 0.56144,-1.229836 0.87559,-0.842169 2.62009,-0.848853 0.38766,0 0.48792,-0.07352 0.10026,-0.08021 0.10026,-0.36093 0,-0.708492 -0.14705,-1.022634 -0.14704,-0.320827 -0.48124,-0.320827 -0.20051,0 -0.36093,0.12031 -0.15373,0.12031 -0.38766,0.441137 -0.59487,0.848853 -1.24321,0.848853 -0.32751,0 -0.53471,-0.193833 -0.2072,-0.193832 -0.2072,-0.507975 0,-0.320827 0.25399,-0.641653 0.26067,-0.320827 0.70181,-0.561447 1.20978,-0.641653 2.52651,-0.641653 z m -0.44782,3.869971 q -0.29409,0 -0.51466,0.24062 -0.21389,0.240619 -0.21389,0.574814 0,0.320826 0.15373,0.521343 0.15373,0.193833 0.40772,0.193833 0.53471,0 0.53471,-0.902325 0,-0.367614 -0.0802,-0.494608 -0.0735,-0.126993 -0.2874,-0.133677 z"
         id="path50321"
         style="fill:#ffffff;stroke:#ff0000;stroke-width:0.32791;stroke-opacity:1" />
      <path
         d="m 223.44411,51.930884 0.0936,2.352728 q 0.0134,0.267356 0.0802,0.39435 0.0735,0.126994 0.4144,0.487923 0.10026,0.106943 0.10026,0.300775 0,0.441137 -0.52803,0.614918 -0.52803,0.173781 -1.88486,0.173781 -0.92237,0 -1.30335,-0.160413 -0.39435,-0.167097 -0.39435,-0.541395 0,-0.133678 0.0401,-0.193833 0.0401,-0.06684 0.26736,-0.314143 0.26735,-0.280723 0.26735,-1.871488 0,-0.922376 -0.21388,-1.363513 -0.17378,-0.354246 -0.64166,-0.354246 -0.44782,0 -0.61491,0.287408 -0.1671,0.287407 -0.1671,1.042686 v 1.323409 q 0,0.39435 0.0468,0.541395 0.0535,0.147046 0.33419,0.568131 0.0735,0.120309 0.0735,0.274039 0,0.394349 -0.54807,0.581498 -0.54808,0.187149 -1.71108,0.187149 -1.85812,0 -1.85812,-0.768647 0,-0.160413 0.0535,-0.24062 0.0602,-0.08689 0.27404,-0.24062 0.17378,-0.126994 0.22057,-0.287407 0.0468,-0.167097 0.0869,-0.80875 0.0468,-0.761963 0.0468,-1.597449 0,-0.461188 -0.0735,-0.60155 -0.0668,-0.147046 -0.40103,-0.354246 -0.28741,-0.180465 -0.28741,-0.441136 0,-0.267356 0.23394,-0.434453 0.23394,-0.173781 0.96248,-0.434453 0.64165,-0.227252 1.23652,-0.380981 0.59486,-0.160414 0.81543,-0.160414 0.20052,0 0.3342,0.147046 0.14036,0.147045 0.14036,0.347562 0,0.02005 -0.007,0.167097 -0.007,0.05347 -0.007,0.09357 0,0.320826 0.26736,0.320826 0.16041,0 0.34087,-0.253988 0.57482,-0.828801 1.67098,-0.828801 0.84217,0 1.44371,0.441136 0.42109,0.314143 0.58819,0.741911 0.16709,0.421085 0.2072,1.243203 z"
         id="path50323"
         style="fill:#ffffff;stroke:#ff0000;stroke-width:0.32791;stroke-opacity:1" />
      <path
         d="m 228.49044,51.215709 v 2.259153 q 0,0.401033 0.19384,0.655021 0.20051,0.253988 0.50797,0.253988 0.26067,0 0.68844,-0.24062 0.10026,-0.06016 0.20052,-0.06016 0.16041,0 0.29409,0.193833 0.13368,0.193832 0.13368,0.421084 0,0.414401 -0.45451,0.795383 -0.94911,0.80875 -2.29925,0.80875 -1.06943,0 -1.71776,-0.60155 -0.64834,-0.608233 -0.64834,-1.597449 v -3.087955 q 0,-0.153729 -0.0401,-0.187149 -0.0334,-0.0401 -0.18715,-0.0401 h -0.68844 q -0.19383,0 -0.24731,-0.06016 -0.0535,-0.06684 -0.0535,-0.300775 v -0.294091 q 0.007,-0.200517 0.15373,-0.294091 l 3.06122,-1.924959 q 0.11363,-0.06016 0.28073,-0.06016 h 0.54139 q 0.1671,0 0.22057,0.08021 0.0601,0.07352 0.0601,0.300775 v 0.902325 q 0,0.200516 0.0602,0.260671 0.0668,0.06016 0.27404,0.06016 h 1.23652 q 0.2473,0 0.32082,0.09357 0.0735,0.08689 0.0735,0.380981 v 0.39435 q 0,0.320826 -0.0936,0.44782 -0.0936,0.12031 -0.34088,0.12031 h -1.20978 q -0.18715,0 -0.25399,0.06684 -0.0668,0.06684 -0.0668,0.253988 z"
         id="path50325"
         style="fill:#ffffff;stroke:#ff0000;stroke-width:0.32791;stroke-opacity:1" />
      <path
         d="m 236.94556,53.1273 h -3.14142 q -0.20721,0 -0.20721,0.180465 0,0.434453 0.46788,0.822118 0.47455,0.380982 1.01595,0.380982 0.32082,0 0.70849,-0.12031 0.39435,-0.126994 0.64834,-0.307459 0.22725,-0.160413 0.36093,-0.160413 0.17378,0 0.34087,0.213884 0.1671,0.213884 0.1671,0.441136 0,0.48124 -0.60155,0.929061 -1.06274,0.795382 -2.45298,0.795382 -1.40362,0 -2.35273,-0.815434 -0.46119,-0.401033 -0.76197,-0.969164 -0.39434,-0.755279 -0.39434,-1.590765 0,-1.122892 0.68175,-2.018533 0.58818,-0.775331 1.49719,-1.156313 0.68176,-0.287407 1.47714,-0.287407 1.26994,0 2.1589,0.72186 0.44782,0.36093 0.72186,0.855537 0.31414,0.561447 0.31414,1.096158 0,0.434452 -0.18047,0.715176 -0.18046,0.274039 -0.46787,0.274039 z m -2.96764,-1.249887 h 0.67507 q 0.42777,0 0.42777,-0.394349 0,-0.36093 -0.2072,-0.588182 -0.2072,-0.227252 -0.5414,-0.227252 -0.3743,0 -0.58818,0.294091 -0.20052,0.274039 -0.20052,0.554762 0,0.200517 0.0936,0.280724 0.10026,0.08021 0.34088,0.08021 z"
         id="path50327"
         style="fill:#ffffff;stroke:#ff0000;stroke-width:0.32791;stroke-opacity:1" />
    </g>
  </g>
</svg>
